<svg id="Layer_1" data-name="Layer 1" xmlns="http://www.w3.org/2000/svg" viewBox="0 0 303.39 92.66"><defs><style>.cls-1{fill:#fff;}.cls-2{fill:#c70c6f;}.cls-3{fill:#e26c9f;}.cls-4{font-size:25.81px;fill:#575756;font-family:ArtegraSoft-Light;font-weight:300;letter-spacing:0.01em;}.cls-5{letter-spacing:-0.01em;}.cls-6{letter-spacing:0.01em;}</style></defs><circle class="cls-1" cx="315.04" cy="454.76" r="11.75" transform="translate(-390.4 0.11) rotate(-51.79)"/><rect class="cls-1" x="42.25" y="15.44" width="29" height="29" rx="13.7"/><rect class="cls-1" x="236.25" y="15.44" width="29" height="29" rx="13.7"/><path class="cls-2" d="M170.84,432.53a16,16,0,0,1,7.48,2.09,24.39,24.39,0,0,1,5.8,4.59v-16a2.19,2.19,0,0,1,.65-1.62,2.22,2.22,0,0,1,1.62-.66,2.25,2.25,0,0,1,2.27,2.28v27.13a17.6,17.6,0,0,1-1.39,7,17.25,17.25,0,0,1-3.81,5.57A17.89,17.89,0,0,1,171,468a17.36,17.36,0,0,1-7-1.4,17.64,17.64,0,0,1-5.61-3.81,18.36,18.36,0,0,1-3.78-5.61,17.3,17.3,0,0,1,0-13.68,18.48,18.48,0,0,1,9.46-9.5A16.27,16.27,0,0,1,170.84,432.53Zm13.28,17.82a15,15,0,0,0-1.22-5.28,13.39,13.39,0,0,0-2.82-4.18,12.82,12.82,0,0,0-9.09-3.74,13.14,13.14,0,0,0-5.14,1,13.1,13.1,0,0,0-7,7,13.08,13.08,0,0,0-1,5.13,12.83,12.83,0,0,0,1,5.1,13.37,13.37,0,0,0,2.83,4.18,13.11,13.11,0,0,0,9.35,3.85,12.78,12.78,0,0,0,5.09-1,13.35,13.35,0,0,0,7-7A12.84,12.84,0,0,0,184.12,450.35Z" transform="translate(-153.24 -420.94)"/><path class="cls-2" d="M210,432.53a16.24,16.24,0,0,1,6.71,1.43,18.74,18.74,0,0,1,5.61,3.85,18.44,18.44,0,0,1,3.85,5.65,17.18,17.18,0,0,1,0,13.68,18.36,18.36,0,0,1-3.78,5.61A17.55,17.55,0,0,1,209.86,468a17.7,17.7,0,0,1-12.47-5,17.09,17.09,0,0,1-3.81-5.57,17.61,17.61,0,0,1-1.4-7,17.2,17.2,0,0,1,1.36-6.85,17.38,17.38,0,0,1,3.74-5.58,18.15,18.15,0,0,1,5.65-3.81A19.38,19.38,0,0,1,210,432.53Zm-13.27,17.82a12.67,12.67,0,0,0,1,5.1,13.18,13.18,0,0,0,2.82,4.18,13.37,13.37,0,0,0,4.18,2.83,12.83,12.83,0,0,0,5.1,1,13,13,0,0,0,5.13-1,13.32,13.32,0,0,0,4.22-2.83,13.18,13.18,0,0,0,2.82-4.18,12.67,12.67,0,0,0,1-5.1,12.92,12.92,0,0,0-1-5.13,13.13,13.13,0,0,0-2.82-4.22,13.46,13.46,0,0,0-4.22-2.82,13.06,13.06,0,0,0-5.13-1,12.84,12.84,0,0,0-5.1,1,13.51,13.51,0,0,0-4.18,2.82,13.13,13.13,0,0,0-2.82,4.22A12.92,12.92,0,0,0,196.73,450.35Z" transform="translate(-153.24 -420.94)"/><path class="cls-2" d="M231,423.22a2.25,2.25,0,0,1,2.27-2.28,2.18,2.18,0,0,1,1.61.66,2.2,2.2,0,0,1,.66,1.62v9h16.21a2.6,2.6,0,0,1,1.87.66,2.21,2.21,0,0,1,0,3.23,2.6,2.6,0,0,1-1.87.66H235.52v13.56a12.84,12.84,0,0,0,1,5.1,13.35,13.35,0,0,0,7,7,13.32,13.32,0,0,0,10.15,0,12.57,12.57,0,0,0,4.11-2.75,2.33,2.33,0,0,1,1.5-.77,2.41,2.41,0,0,1,1.73.48,2.64,2.64,0,0,1,.73,1.47,2.28,2.28,0,0,1-.37,1.68,17.08,17.08,0,0,1-5.72,4,17.55,17.55,0,0,1-7,1.43,17.35,17.35,0,0,1-6.89-1.39,17.68,17.68,0,0,1-9.39-9.39,17.19,17.19,0,0,1-1.39-6.9Z" transform="translate(-153.24 -420.94)"/><path class="cls-3" d="M280.13,434.81a1.69,1.69,0,1,1,3.38,0v6.69h12a1.94,1.94,0,0,1,1.39.49,1.57,1.57,0,0,1,.51,1.19,1.61,1.61,0,0,1-.51,1.2,1.94,1.94,0,0,1-1.39.49h-12v10.06a9.34,9.34,0,0,0,.76,3.77,9.58,9.58,0,0,0,2.09,3.1,9.88,9.88,0,0,0,3.1,2.1,9.42,9.42,0,0,0,3.78.76,9.54,9.54,0,0,0,3.75-.74,9.43,9.43,0,0,0,3-2,1.73,1.73,0,0,1,1.12-.58,1.79,1.79,0,0,1,1.28.36,1.92,1.92,0,0,1,.54,1.09,1.77,1.77,0,0,1-.27,1.25,12.92,12.92,0,0,1-9.46,4,12.68,12.68,0,0,1-5.11-1,13.07,13.07,0,0,1-7-7,12.76,12.76,0,0,1-1-5.11Z" transform="translate(-153.24 -420.94)"/><path class="cls-3" d="M316.83,441.72a12,12,0,0,1,5,1.06,13.64,13.64,0,0,1,7,7,12.8,12.8,0,0,1,0,10.13,13.54,13.54,0,0,1-2.8,4.16,13.06,13.06,0,0,1-4.16,2.83,12.91,12.91,0,0,1-5.17,1,13.14,13.14,0,0,1-9.24-3.7,12.87,12.87,0,0,1-2.83-4.13,13.21,13.21,0,0,1-1-5.22,13,13,0,0,1,3.78-9.22,13.52,13.52,0,0,1,4.19-2.83A14.38,14.38,0,0,1,316.83,441.72ZM307,454.93a9.51,9.51,0,0,0,.76,3.77,9.91,9.91,0,0,0,5.2,5.2,9.34,9.34,0,0,0,3.77.76,9.6,9.6,0,0,0,3.81-.76,9.79,9.79,0,0,0,3.13-2.1,9.91,9.91,0,0,0,2.09-3.1,9.34,9.34,0,0,0,.76-3.77,9.64,9.64,0,0,0-.76-3.81,9.72,9.72,0,0,0-5.22-5.22,9.6,9.6,0,0,0-3.81-.76,9.34,9.34,0,0,0-3.77.76,9.77,9.77,0,0,0-3.1,2.1,9.64,9.64,0,0,0-2.1,3.12A9.81,9.81,0,0,0,307,454.93Z" transform="translate(-153.24 -420.94)"/><path class="cls-2" d="M365.66,432.53a16,16,0,0,1,7.48,2.09,24.14,24.14,0,0,1,5.79,4.59v-16a2.28,2.28,0,1,1,4.55,0v27.13a17.77,17.77,0,0,1-1.39,7,17.12,17.12,0,0,1-3.82,5.57,17.56,17.56,0,0,1-5.65,3.67A17.82,17.82,0,0,1,365.8,468a17.55,17.55,0,0,1-12.57-5.21,18.36,18.36,0,0,1-3.78-5.61,17.3,17.3,0,0,1,0-13.68,18.44,18.44,0,0,1,3.85-5.65A18.74,18.74,0,0,1,359,434,16.24,16.24,0,0,1,365.66,432.53Zm13.27,17.82a15,15,0,0,0-1.21-5.28,13.74,13.74,0,0,0-2.82-4.18,12.82,12.82,0,0,0-9.1-3.74,13.06,13.06,0,0,0-5.13,1,13.46,13.46,0,0,0-4.22,2.82,13.13,13.13,0,0,0-2.82,4.22,12.92,12.92,0,0,0-1,5.13,12.67,12.67,0,0,0,1,5.1,13.18,13.18,0,0,0,2.82,4.18,13.32,13.32,0,0,0,4.22,2.83,13,13,0,0,0,5.13,1,12.83,12.83,0,0,0,5.1-1,13.35,13.35,0,0,0,7-7A12.83,12.83,0,0,0,378.93,450.35Z" transform="translate(-153.24 -420.94)"/><path class="cls-2" d="M404.82,432.53a16.27,16.27,0,0,1,6.71,1.43,18.48,18.48,0,0,1,9.46,9.5,17.3,17.3,0,0,1,0,13.68,18.36,18.36,0,0,1-3.78,5.61,17.64,17.64,0,0,1-5.61,3.81,17.36,17.36,0,0,1-7,1.4,17.74,17.74,0,0,1-12.47-5,17.25,17.25,0,0,1-3.81-5.57,17.6,17.6,0,0,1-1.39-7,17.2,17.2,0,0,1,1.36-6.85,17.38,17.38,0,0,1,3.74-5.58,18.1,18.1,0,0,1,5.64-3.81A19.48,19.48,0,0,1,404.82,432.53Zm-13.27,17.82a12.83,12.83,0,0,0,1,5.1,13.35,13.35,0,0,0,7,7,12.78,12.78,0,0,0,5.09,1,13.11,13.11,0,0,0,9.35-3.85,13.37,13.37,0,0,0,2.83-4.18,12.83,12.83,0,0,0,1-5.1,13.08,13.08,0,0,0-1-5.13,13.1,13.1,0,0,0-7-7,13.14,13.14,0,0,0-5.14-1,12.79,12.79,0,0,0-5.09,1,13.18,13.18,0,0,0-7,7A13.08,13.08,0,0,0,391.55,450.35Z" transform="translate(-153.24 -420.94)"/><path class="cls-2" d="M425.79,423.22a2.28,2.28,0,1,1,4.55,0v9h16.21a2.62,2.62,0,0,1,1.87.66,2.21,2.21,0,0,1,0,3.23,2.62,2.62,0,0,1-1.87.66H430.34v13.56a12.67,12.67,0,0,0,1,5.1,13.18,13.18,0,0,0,2.82,4.18,13.37,13.37,0,0,0,4.18,2.83,13,13,0,0,0,14.27-2.72,2.33,2.33,0,0,1,1.5-.77,2.37,2.37,0,0,1,1.72.48,2.59,2.59,0,0,1,.74,1.47,2.38,2.38,0,0,1-.37,1.68,17.08,17.08,0,0,1-5.72,4,17.58,17.58,0,0,1-7,1.43,17.4,17.4,0,0,1-6.9-1.39,17.62,17.62,0,0,1-9.38-9.39,17.2,17.2,0,0,1-1.4-6.9Z" transform="translate(-153.24 -420.94)"/><text class="cls-4" transform="translate(1.67 85.96) scale(0.99 1)">Studio za g<tspan class="cls-5" x="140.86" y="0">r</tspan><tspan class="cls-6" x="151.67" y="0">afiku i dizajn</tspan></text></svg>